<svg version="1.1" xmlns="http://www.w3.org/2000/svg" xmlns:xlink="http://www.w3.org/1999/xlink" width="600" height="600"><defs><clipPath id="AryISHqdLZmJ"><path fill="none" stroke="none" d=" M 73 32 L 570 32 L 570 550 L 73 550 L 73 32 Z"/></clipPath><clipPath id="ADcrbldKMstF"><path fill="none" stroke="none" d=" M 73 32 L 570 32 L 570 550 L 73 550 L 73 32 Z"/></clipPath><clipPath id="bdLkcAtFsmiv"><path fill="none" stroke="none" d=" M 73 32 L 570 32 L 570 550 L 73 550 L 73 32 Z"/></clipPath></defs><g transform="scale(1,1) translate(0.5,0.5)"><rect fill="#ffffff" stroke="none" x="0" y="0" width="600" height="600"/><rect fill="#FFFFFF" stroke="none" x="73" y="32" width="497" height="518"/><rect fill="#ffffff" stroke="none" x="73" y="32" width="497" height="518"/><g><rect fill="none" stroke="#e5e5e5" x="73" y="32" width="497" height="518" stroke-linejoin="bevel" stroke-miterlimit="10"/></g><g clip-path="url(#AryISHqdLZmJ)"><g><g><path fill="none" stroke="#e5e5e5" paint-order="fill stroke markers" d=" M 96 550 L 96 32" stroke-linejoin="bevel" stroke-miterlimit="10"/><path fill="none" stroke="#e5e5e5" paint-order="fill stroke markers" d=" M 156 550 L 156 32" stroke-linejoin="bevel" stroke-miterlimit="10"/><path fill="none" stroke="#e5e5e5" paint-order="fill stroke markers" d=" M 216 550 L 216 32" stroke-linejoin="bevel" stroke-miterlimit="10"/><path fill="none" stroke="#e5e5e5" paint-order="fill stroke markers" d=" M 277 550 L 277 32" stroke-linejoin="bevel" stroke-miterlimit="10"/><path fill="none" stroke="#e5e5e5" paint-order="fill stroke markers" d=" M 337 550 L 337 32" stroke-linejoin="bevel" stroke-miterlimit="10"/><path fill="none" stroke="#e5e5e5" paint-order="fill stroke markers" d=" M 398 550 L 398 32" stroke-linejoin="bevel" stroke-miterlimit="10"/><path fill="none" stroke="#e5e5e5" paint-order="fill stroke markers" d=" M 458 550 L 458 32" stroke-linejoin="bevel" stroke-miterlimit="10"/><path fill="none" stroke="#e5e5e5" paint-order="fill stroke markers" d=" M 518 550 L 518 32" stroke-linejoin="bevel" stroke-miterlimit="10"/></g></g></g><g clip-path="url(#ADcrbldKMstF)"><g><g><path fill="none" stroke="#e5e5e5" paint-order="fill stroke markers" d=" M 73 526 L 570 526" stroke-linejoin="bevel" stroke-miterlimit="10"/><path fill="none" stroke="#e5e5e5" paint-order="fill stroke markers" d=" M 73 441 L 570 441" stroke-linejoin="bevel" stroke-miterlimit="10"/><path fill="none" stroke="#e5e5e5" paint-order="fill stroke markers" d=" M 73 356 L 570 356" stroke-linejoin="bevel" stroke-miterlimit="10"/><path fill="none" stroke="#e5e5e5" paint-order="fill stroke markers" d=" M 73 270 L 570 270" stroke-linejoin="bevel" stroke-miterlimit="10"/><path fill="none" stroke="#e5e5e5" paint-order="fill stroke markers" d=" M 73 185 L 570 185" stroke-linejoin="bevel" stroke-miterlimit="10"/><path fill="none" stroke="#e5e5e5" paint-order="fill stroke markers" d=" M 73 100 L 570 100" stroke-linejoin="bevel" stroke-miterlimit="10"/></g></g></g><g clip-path="url(#bdLkcAtFsmiv)"><g><g><path fill="none" stroke="none"/><path fill="mediumslateblue" stroke="none" paint-order="stroke fill markers" d=" M 95.59090909090911 141.49908675498 L 118.18181818181819 141.49908675498 L 118.18181818181819 526.4545454545455 L 95.59090909090911 526.4545454545455 L 95.59090909090911 141.49908675498 Z" fill-opacity="0.7"/><path fill="none" stroke="black" paint-order="fill stroke markers" d=" M 95.59090909090911 141.49908675498 L 118.18181818181819 141.49908675498 L 118.18181818181819 526.4545454545455 L 95.59090909090911 526.4545454545455 L 95.59090909090911 141.49908675498 Z" stroke-linejoin="bevel" stroke-miterlimit="10"/><path fill="mediumslateblue" stroke="none" paint-order="stroke fill markers" d=" M 118.18181818181819 126.31673447318622 L 140.77272727272728 126.31673447318622 L 140.77272727272728 526.4545454545455 L 118.18181818181819 526.4545454545455 L 118.18181818181819 126.31673447318622 Z" fill-opacity="0.7"/><path fill="none" stroke="black" paint-order="fill stroke markers" d=" M 118.18181818181819 126.31673447318622 L 140.77272727272728 126.31673447318622 L 140.77272727272728 526.4545454545455 L 118.18181818181819 526.4545454545455 L 118.18181818181819 126.31673447318622 Z" stroke-linejoin="bevel" stroke-miterlimit="10"/><path fill="mediumslateblue" stroke="none" paint-order="stroke fill markers" d=" M 140.77272727272728 55.54545454545456 L 163.36363636363637 55.54545454545456 L 163.36363636363637 526.4545454545455 L 140.77272727272728 526.4545454545455 L 140.77272727272728 55.54545454545456 Z" fill-opacity="0.7"/><path fill="none" stroke="black" paint-order="fill stroke markers" d=" M 140.77272727272728 55.54545454545456 L 163.36363636363637 55.54545454545456 L 163.36363636363637 526.4545454545455 L 140.77272727272728 526.4545454545455 L 140.77272727272728 55.54545454545456 Z" stroke-linejoin="bevel" stroke-miterlimit="10"/><path fill="mediumslateblue" stroke="none" paint-order="stroke fill markers" d=" M 163.36363636363637 167.69675649656796 L 185.95454545454547 167.69675649656796 L 185.95454545454547 526.4545454545455 L 163.36363636363637 526.4545454545455 L 163.36363636363637 167.69675649656796 Z" fill-opacity="0.7"/><path fill="none" stroke="black" paint-order="fill stroke markers" d=" M 163.36363636363637 167.69675649656796 L 185.95454545454547 167.69675649656796 L 185.95454545454547 526.4545454545455 L 163.36363636363637 526.4545454545455 L 163.36363636363637 167.69675649656796 Z" stroke-linejoin="bevel" stroke-miterlimit="10"/><path fill="mediumslateblue" stroke="none" paint-order="stroke fill markers" d=" M 185.95454545454547 295.8843113077537 L 208.54545454545456 295.8843113077537 L 208.54545454545456 526.4545454545455 L 185.95454545454547 526.4545454545455 L 185.95454545454547 295.8843113077537 Z" fill-opacity="0.7"/><path fill="none" stroke="black" paint-order="fill stroke markers" d=" M 185.95454545454547 295.8843113077537 L 208.54545454545456 295.8843113077537 L 208.54545454545456 526.4545454545455 L 185.95454545454547 526.4545454545455 L 185.95454545454547 295.8843113077537 Z" stroke-linejoin="bevel" stroke-miterlimit="10"/><path fill="mediumslateblue" stroke="none" paint-order="stroke fill markers" d=" M 208.54545454545456 388.73746018977033 L 231.13636363636365 388.73746018977033 L 231.13636363636365 526.4545454545455 L 208.54545454545456 526.4545454545455 L 208.54545454545456 388.73746018977033 Z" fill-opacity="0.7"/><path fill="none" stroke="black" paint-order="fill stroke markers" d=" M 208.54545454545456 388.73746018977033 L 231.13636363636365 388.73746018977033 L 231.13636363636365 526.4545454545455 L 208.54545454545456 526.4545454545455 L 208.54545454545456 388.73746018977033 Z" stroke-linejoin="bevel" stroke-miterlimit="10"/><path fill="mediumslateblue" stroke="none" paint-order="stroke fill markers" d=" M 231.13636363636365 447.34919588281457 L 253.72727272727275 447.34919588281457 L 253.72727272727275 526.4545454545455 L 231.13636363636365 526.4545454545455 L 231.13636363636365 447.34919588281457 Z" fill-opacity="0.7"/><path fill="none" stroke="black" paint-order="fill stroke markers" d=" M 231.13636363636365 447.34919588281457 L 253.72727272727275 447.34919588281457 L 253.72727272727275 526.4545454545455 L 231.13636363636365 526.4545454545455 L 231.13636363636365 447.34919588281457 Z" stroke-linejoin="bevel" stroke-miterlimit="10"/><path fill="mediumslateblue" stroke="none" paint-order="stroke fill markers" d=" M 253.72727272727275 480.97580065542644 L 276.3181818181818 480.97580065542644 L 276.3181818181818 526.4545454545455 L 253.72727272727275 526.4545454545455 L 253.72727272727275 480.97580065542644 Z" fill-opacity="0.7"/><path fill="none" stroke="black" paint-order="fill stroke markers" d=" M 253.72727272727275 480.97580065542644 L 276.3181818181818 480.97580065542644 L 276.3181818181818 526.4545454545455 L 253.72727272727275 526.4545454545455 L 253.72727272727275 480.97580065542644 Z" stroke-linejoin="bevel" stroke-miterlimit="10"/><path fill="mediumslateblue" stroke="none" paint-order="stroke fill markers" d=" M 276.3181818181818 497.2682236889824 L 298.90909090909093 497.2682236889824 L 298.90909090909093 526.4545454545455 L 276.3181818181818 526.4545454545455 L 276.3181818181818 497.2682236889824 Z" fill-opacity="0.7"/><path fill="none" stroke="black" paint-order="fill stroke markers" d=" M 276.3181818181818 497.2682236889824 L 298.90909090909093 497.2682236889824 L 298.90909090909093 526.4545454545455 L 276.3181818181818 526.4545454545455 L 276.3181818181818 497.2682236889824 Z" stroke-linejoin="bevel" stroke-miterlimit="10"/><path fill="mediumslateblue" stroke="none" paint-order="stroke fill markers" d=" M 298.90909090909093 508.2835411487766 L 321.5 508.2835411487766 L 321.5 526.4545454545455 L 298.90909090909093 526.4545454545455 L 298.90909090909093 508.2835411487766 Z" fill-opacity="0.7"/><path fill="none" stroke="black" paint-order="fill stroke markers" d=" M 298.90909090909093 508.2835411487766 L 321.5 508.2835411487766 L 321.5 526.4545454545455 L 298.90909090909093 526.4545454545455 L 298.90909090909093 508.2835411487766 Z" stroke-linejoin="bevel" stroke-miterlimit="10"/><path fill="mediumslateblue" stroke="none" paint-order="stroke fill markers" d=" M 321.5 514.9951996940465 L 344.0909090909091 514.9951996940465 L 344.0909090909091 526.4545454545455 L 321.5 526.4545454545455 L 321.5 514.9951996940465 Z" fill-opacity="0.7"/><path fill="none" stroke="black" paint-order="fill stroke markers" d=" M 321.5 514.9951996940465 L 344.0909090909091 514.9951996940465 L 344.0909090909091 526.4545454545455 L 321.5 526.4545454545455 L 321.5 514.9951996940465 Z" stroke-linejoin="bevel" stroke-miterlimit="10"/><path fill="mediumslateblue" stroke="none" paint-order="stroke fill markers" d=" M 344.0909090909091 517.8984616601938 L 366.68181818181824 517.8984616601938 L 366.68181818181824 526.4545454545455 L 344.0909090909091 526.4545454545455 L 344.0909090909091 517.8984616601938 Z" fill-opacity="0.7"/><path fill="none" stroke="black" paint-order="fill stroke markers" d=" M 344.0909090909091 517.8984616601938 L 366.68181818181824 517.8984616601938 L 366.68181818181824 526.4545454545455 L 344.0909090909091 526.4545454545455 L 344.0909090909091 517.8984616601938 Z" stroke-linejoin="bevel" stroke-miterlimit="10"/><path fill="mediumslateblue" stroke="none" paint-order="stroke fill markers" d=" M 366.68181818181824 520.5113974297263 L 389.27272727272725 520.5113974297263 L 389.27272727272725 526.4545454545455 L 366.68181818181824 526.4545454545455 L 366.68181818181824 520.5113974297263 Z" fill-opacity="0.7"/><path fill="none" stroke="black" paint-order="fill stroke markers" d=" M 366.68181818181824 520.5113974297263 L 389.27272727272725 520.5113974297263 L 389.27272727272725 526.4545454545455 L 366.68181818181824 526.4545454545455 L 366.68181818181824 520.5113974297263 Z" stroke-linejoin="bevel" stroke-miterlimit="10"/><path fill="mediumslateblue" stroke="none" paint-order="stroke fill markers" d=" M 389.27272727272725 521.0237377766935 L 411.8636363636364 521.0237377766935 L 411.8636363636364 526.4545454545455 L 389.27272727272725 526.4545454545455 L 389.27272727272725 521.0237377766935 Z" fill-opacity="0.7"/><path fill="none" stroke="black" paint-order="fill stroke markers" d=" M 389.27272727272725 521.0237377766935 L 411.8636363636364 521.0237377766935 L 411.8636363636364 526.4545454545455 L 389.27272727272725 526.4545454545455 L 389.27272727272725 521.0237377766935 Z" stroke-linejoin="bevel" stroke-miterlimit="10"/><path fill="mediumslateblue" stroke="none" paint-order="stroke fill markers" d=" M 411.8636363636364 522.6973829101196 L 434.4545454545454 522.6973829101196 L 434.4545454545454 526.4545454545455 L 411.8636363636364 526.4545454545455 L 411.8636363636364 522.6973829101196 Z" fill-opacity="0.7"/><path fill="none" stroke="black" paint-order="fill stroke markers" d=" M 411.8636363636364 522.6973829101196 L 434.4545454545454 522.6973829101196 L 434.4545454545454 526.4545454545455 L 411.8636363636364 526.4545454545455 L 411.8636363636364 522.6973829101196 Z" stroke-linejoin="bevel" stroke-miterlimit="10"/><path fill="mediumslateblue" stroke="none" paint-order="stroke fill markers" d=" M 434.4545454545454 523.5000494537015 L 457.0454545454545 523.5000494537015 L 457.0454545454545 526.4545454545455 L 434.4545454545454 526.4545454545455 L 434.4545454545454 523.5000494537015 Z" fill-opacity="0.7"/><path fill="none" stroke="black" paint-order="fill stroke markers" d=" M 434.4545454545454 523.5000494537015 L 457.0454545454545 523.5000494537015 L 457.0454545454545 526.4545454545455 L 434.4545454545454 526.4545454545455 L 434.4545454545454 523.5000494537015 Z" stroke-linejoin="bevel" stroke-miterlimit="10"/><path fill="mediumslateblue" stroke="none" paint-order="stroke fill markers" d=" M 457.0454545454545 523.9782337775375 L 479.6363636363636 523.9782337775375 L 479.6363636363636 526.4545454545455 L 457.0454545454545 526.4545454545455 L 457.0454545454545 523.9782337775375 Z" fill-opacity="0.7"/><path fill="none" stroke="black" paint-order="fill stroke markers" d=" M 457.0454545454545 523.9782337775375 L 479.6363636363636 523.9782337775375 L 479.6363636363636 526.4545454545455 L 457.0454545454545 526.4545454545455 L 457.0454545454545 523.9782337775375 Z" stroke-linejoin="bevel" stroke-miterlimit="10"/><path fill="mediumslateblue" stroke="none" paint-order="stroke fill markers" d=" M 479.6363636363636 524.3027159972834 L 502.22727272727275 524.3027159972834 L 502.22727272727275 526.4545454545455 L 479.6363636363636 526.4545454545455 L 479.6363636363636 524.3027159972834 Z" fill-opacity="0.7"/><path fill="none" stroke="black" paint-order="fill stroke markers" d=" M 479.6363636363636 524.3027159972834 L 502.22727272727275 524.3027159972834 L 502.22727272727275 526.4545454545455 L 479.6363636363636 526.4545454545455 L 479.6363636363636 524.3027159972834 Z" stroke-linejoin="bevel" stroke-miterlimit="10"/><path fill="mediumslateblue" stroke="none" paint-order="stroke fill markers" d=" M 502.22727272727275 524.797978332685 L 524.8181818181818 524.797978332685 L 524.8181818181818 526.4545454545455 L 502.22727272727275 526.4545454545455 L 502.22727272727275 524.797978332685 Z" fill-opacity="0.7"/><path fill="none" stroke="black" paint-order="fill stroke markers" d=" M 502.22727272727275 524.797978332685 L 524.8181818181818 524.797978332685 L 524.8181818181818 526.4545454545455 L 502.22727272727275 526.4545454545455 L 502.22727272727275 524.797978332685 Z" stroke-linejoin="bevel" stroke-miterlimit="10"/><path fill="mediumslateblue" stroke="none" paint-order="stroke fill markers" d=" M 524.8181818181818 525.037070494603 L 547.4090909090909 525.037070494603 L 547.4090909090909 526.4545454545455 L 524.8181818181818 526.4545454545455 L 524.8181818181818 525.037070494603 Z" fill-opacity="0.7"/><path fill="none" stroke="black" paint-order="fill stroke markers" d=" M 524.8181818181818 525.037070494603 L 547.4090909090909 525.037070494603 L 547.4090909090909 526.4545454545455 L 524.8181818181818 526.4545454545455 L 524.8181818181818 525.037070494603 Z" stroke-linejoin="bevel" stroke-miterlimit="10"/></g></g></g><g><g fill="#444444"><path fill="none" stroke="black" paint-order="fill stroke markers" d=" M 73 550 L 570 550" stroke-linejoin="bevel" stroke-miterlimit="10"/><path fill="none" stroke="black" paint-order="fill stroke markers" d=" M 96 556 L 96 548" stroke-linejoin="bevel" stroke-miterlimit="10"/><path fill="none" stroke="black" paint-order="fill stroke markers" d=" M 156 556 L 156 548" stroke-linejoin="bevel" stroke-miterlimit="10"/><path fill="none" stroke="black" paint-order="fill stroke markers" d=" M 216 556 L 216 548" stroke-linejoin="bevel" stroke-miterlimit="10"/><path fill="none" stroke="black" paint-order="fill stroke markers" d=" M 277 556 L 277 548" stroke-linejoin="bevel" stroke-miterlimit="10"/><path fill="none" stroke="black" paint-order="fill stroke markers" d=" M 337 556 L 337 548" stroke-linejoin="bevel" stroke-miterlimit="10"/><path fill="none" stroke="black" paint-order="fill stroke markers" d=" M 398 556 L 398 548" stroke-linejoin="bevel" stroke-miterlimit="10"/><path fill="none" stroke="black" paint-order="fill stroke markers" d=" M 458 556 L 458 548" stroke-linejoin="bevel" stroke-miterlimit="10"/><path fill="none" stroke="black" paint-order="fill stroke markers" d=" M 518 556 L 518 548" stroke-linejoin="bevel" stroke-miterlimit="10"/><path fill="none" stroke="black" paint-order="fill stroke markers" d=" M 84 554 L 84 550" stroke-linejoin="bevel" stroke-miterlimit="10"/><path fill="none" stroke="black" paint-order="fill stroke markers" d=" M 96 554 L 96 550" stroke-linejoin="bevel" stroke-miterlimit="10"/><path fill="none" stroke="black" paint-order="fill stroke markers" d=" M 108 554 L 108 550" stroke-linejoin="bevel" stroke-miterlimit="10"/><path fill="none" stroke="black" paint-order="fill stroke markers" d=" M 120 554 L 120 550" stroke-linejoin="bevel" stroke-miterlimit="10"/><path fill="none" stroke="black" paint-order="fill stroke markers" d=" M 132 554 L 132 550" stroke-linejoin="bevel" stroke-miterlimit="10"/><path fill="none" stroke="black" paint-order="fill stroke markers" d=" M 144 554 L 144 550" stroke-linejoin="bevel" stroke-miterlimit="10"/><path fill="none" stroke="black" paint-order="fill stroke markers" d=" M 156 554 L 156 550" stroke-linejoin="bevel" stroke-miterlimit="10"/><path fill="none" stroke="black" paint-order="fill stroke markers" d=" M 168 554 L 168 550" stroke-linejoin="bevel" stroke-miterlimit="10"/><path fill="none" stroke="black" paint-order="fill stroke markers" d=" M 180 554 L 180 550" stroke-linejoin="bevel" stroke-miterlimit="10"/><path fill="none" stroke="black" paint-order="fill stroke markers" d=" M 192 554 L 192 550" stroke-linejoin="bevel" stroke-miterlimit="10"/><path fill="none" stroke="black" paint-order="fill stroke markers" d=" M 204 554 L 204 550" stroke-linejoin="bevel" stroke-miterlimit="10"/><path fill="none" stroke="black" paint-order="fill stroke markers" d=" M 216 554 L 216 550" stroke-linejoin="bevel" stroke-miterlimit="10"/><path fill="none" stroke="black" paint-order="fill stroke markers" d=" M 228 554 L 228 550" stroke-linejoin="bevel" stroke-miterlimit="10"/><path fill="none" stroke="black" paint-order="fill stroke markers" d=" M 241 554 L 241 550" stroke-linejoin="bevel" stroke-miterlimit="10"/><path fill="none" stroke="black" paint-order="fill stroke markers" d=" M 253 554 L 253 550" stroke-linejoin="bevel" stroke-miterlimit="10"/><path fill="none" stroke="black" paint-order="fill stroke markers" d=" M 265 554 L 265 550" stroke-linejoin="bevel" stroke-miterlimit="10"/><path fill="none" stroke="black" paint-order="fill stroke markers" d=" M 277 554 L 277 550" stroke-linejoin="bevel" stroke-miterlimit="10"/><path fill="none" stroke="black" paint-order="fill stroke markers" d=" M 289 554 L 289 550" stroke-linejoin="bevel" stroke-miterlimit="10"/><path fill="none" stroke="black" paint-order="fill stroke markers" d=" M 301 554 L 301 550" stroke-linejoin="bevel" stroke-miterlimit="10"/><path fill="none" stroke="black" paint-order="fill stroke markers" d=" M 313 554 L 313 550" stroke-linejoin="bevel" stroke-miterlimit="10"/><path fill="none" stroke="black" paint-order="fill stroke markers" d=" M 325 554 L 325 550" stroke-linejoin="bevel" stroke-miterlimit="10"/><path fill="none" stroke="black" paint-order="fill stroke markers" d=" M 337 554 L 337 550" stroke-linejoin="bevel" stroke-miterlimit="10"/><path fill="none" stroke="black" paint-order="fill stroke markers" d=" M 349 554 L 349 550" stroke-linejoin="bevel" stroke-miterlimit="10"/><path fill="none" stroke="black" paint-order="fill stroke markers" d=" M 361 554 L 361 550" stroke-linejoin="bevel" stroke-miterlimit="10"/><path fill="none" stroke="black" paint-order="fill stroke markers" d=" M 373 554 L 373 550" stroke-linejoin="bevel" stroke-miterlimit="10"/><path fill="none" stroke="black" paint-order="fill stroke markers" d=" M 386 554 L 386 550" stroke-linejoin="bevel" stroke-miterlimit="10"/><path fill="none" stroke="black" paint-order="fill stroke markers" d=" M 398 554 L 398 550" stroke-linejoin="bevel" stroke-miterlimit="10"/><path fill="none" stroke="black" paint-order="fill stroke markers" d=" M 410 554 L 410 550" stroke-linejoin="bevel" stroke-miterlimit="10"/><path fill="none" stroke="black" paint-order="fill stroke markers" d=" M 422 554 L 422 550" stroke-linejoin="bevel" stroke-miterlimit="10"/><path fill="none" stroke="black" paint-order="fill stroke markers" d=" M 434 554 L 434 550" stroke-linejoin="bevel" stroke-miterlimit="10"/><path fill="none" stroke="black" paint-order="fill stroke markers" d=" M 446 554 L 446 550" stroke-linejoin="bevel" stroke-miterlimit="10"/><path fill="none" stroke="black" paint-order="fill stroke markers" d=" M 458 554 L 458 550" stroke-linejoin="bevel" stroke-miterlimit="10"/><path fill="none" stroke="black" paint-order="fill stroke markers" d=" M 470 554 L 470 550" stroke-linejoin="bevel" stroke-miterlimit="10"/><path fill="none" stroke="black" paint-order="fill stroke markers" d=" M 482 554 L 482 550" stroke-linejoin="bevel" stroke-miterlimit="10"/><path fill="none" stroke="black" paint-order="fill stroke markers" d=" M 494 554 L 494 550" stroke-linejoin="bevel" stroke-miterlimit="10"/><path fill="none" stroke="black" paint-order="fill stroke markers" d=" M 506 554 L 506 550" stroke-linejoin="bevel" stroke-miterlimit="10"/><path fill="none" stroke="black" paint-order="fill stroke markers" d=" M 518 554 L 518 550" stroke-linejoin="bevel" stroke-miterlimit="10"/><path fill="none" stroke="black" paint-order="fill stroke markers" d=" M 531 554 L 531 550" stroke-linejoin="bevel" stroke-miterlimit="10"/><path fill="none" stroke="black" paint-order="fill stroke markers" d=" M 543 554 L 543 550" stroke-linejoin="bevel" stroke-miterlimit="10"/><path fill="none" stroke="black" paint-order="fill stroke markers" d=" M 555 554 L 555 550" stroke-linejoin="bevel" stroke-miterlimit="10"/><path fill="" stroke="black" paint-order="fill stroke markers" d=" M 567 554 L 567 550" stroke-linejoin="bevel" stroke-miterlimit="10"/><g transform="translate(96,561) rotate(0,0,0)"><text fill="" stroke="none" font-family="helvetica" font-size="11px" font-style="normal" font-weight="normal" text-decoration="normal" x="0" y="0" text-anchor="middle" dominant-baseline="hanging">0.000e+0</text><g transform="rotate(0,0,0) translate(-96,-561) translate(156,561)"><text fill="" stroke="none" font-family="helvetica" font-size="11px" font-style="normal" font-weight="normal" text-decoration="normal" x="0" y="0" text-anchor="middle" dominant-baseline="hanging">2.000e+4</text><g transform="rotate(0,0,0) translate(-156,-561) translate(216,561)"><text fill="" stroke="none" font-family="helvetica" font-size="11px" font-style="normal" font-weight="normal" text-decoration="normal" x="0" y="0" text-anchor="middle" dominant-baseline="hanging">4.000e+4</text><g transform="rotate(0,0,0) translate(-216,-561) translate(277,561)"><text fill="" stroke="none" font-family="helvetica" font-size="11px" font-style="normal" font-weight="normal" text-decoration="normal" x="0" y="0" text-anchor="middle" dominant-baseline="hanging">6.000e+4</text><g transform="rotate(0,0,0) translate(-277,-561) translate(337,561)"><text fill="" stroke="none" font-family="helvetica" font-size="11px" font-style="normal" font-weight="normal" text-decoration="normal" x="0" y="0" text-anchor="middle" dominant-baseline="hanging">8.000e+4</text><g transform="rotate(0,0,0) translate(-337,-561) translate(398,561)"><text fill="" stroke="none" font-family="helvetica" font-size="11px" font-style="normal" font-weight="normal" text-decoration="normal" x="0" y="0" text-anchor="middle" dominant-baseline="hanging">1.000e+5</text><g transform="rotate(0,0,0) translate(-398,-561) translate(458,561)"><text fill="" stroke="none" font-family="helvetica" font-size="11px" font-style="normal" font-weight="normal" text-decoration="normal" x="0" y="0" text-anchor="middle" dominant-baseline="hanging">1.200e+5</text><g transform="rotate(0,0,0) translate(-458,-561) translate(518,561)"><text fill="" stroke="none" font-family="helvetica" font-size="11px" font-style="normal" font-weight="normal" text-decoration="normal" x="0" y="0" text-anchor="middle" dominant-baseline="hanging">1.400e+5</text><g transform="rotate(0,0,0) translate(-518,-561) translate(322,581)"><text fill="" stroke="none" font-family="helvetica" font-size="13px" font-style="italic" font-weight="normal" text-decoration="normal" x="0" y="0" text-anchor="middle" dominant-baseline="hanging">Article length (# of characters)</text><g transform="rotate(0,0,0) translate(-322,-581)"/></g></g></g></g></g></g></g></g></g></g></g><g><g fill="#444444"><path fill="none" stroke="black" paint-order="fill stroke markers" d=" M 73 550 L 73 32" stroke-linejoin="bevel" stroke-miterlimit="10"/><path fill="none" stroke="black" paint-order="fill stroke markers" d=" M 67 526 L 75 526" stroke-linejoin="bevel" stroke-miterlimit="10"/><path fill="none" stroke="black" paint-order="fill stroke markers" d=" M 67 441 L 75 441" stroke-linejoin="bevel" stroke-miterlimit="10"/><path fill="none" stroke="black" paint-order="fill stroke markers" d=" M 67 356 L 75 356" stroke-linejoin="bevel" stroke-miterlimit="10"/><path fill="none" stroke="black" paint-order="fill stroke markers" d=" M 67 270 L 75 270" stroke-linejoin="bevel" stroke-miterlimit="10"/><path fill="none" stroke="black" paint-order="fill stroke markers" d=" M 67 185 L 75 185" stroke-linejoin="bevel" stroke-miterlimit="10"/><path fill="none" stroke="black" paint-order="fill stroke markers" d=" M 67 100 L 75 100" stroke-linejoin="bevel" stroke-miterlimit="10"/><path fill="none" stroke="black" paint-order="fill stroke markers" d=" M 69 544 L 73 544" stroke-linejoin="bevel" stroke-miterlimit="10"/><path fill="none" stroke="black" paint-order="fill stroke markers" d=" M 69 526 L 73 526" stroke-linejoin="bevel" stroke-miterlimit="10"/><path fill="none" stroke="black" paint-order="fill stroke markers" d=" M 69 509 L 73 509" stroke-linejoin="bevel" stroke-miterlimit="10"/><path fill="none" stroke="black" paint-order="fill stroke markers" d=" M 69 492 L 73 492" stroke-linejoin="bevel" stroke-miterlimit="10"/><path fill="none" stroke="black" paint-order="fill stroke markers" d=" M 69 475 L 73 475" stroke-linejoin="bevel" stroke-miterlimit="10"/><path fill="none" stroke="black" paint-order="fill stroke markers" d=" M 69 458 L 73 458" stroke-linejoin="bevel" stroke-miterlimit="10"/><path fill="none" stroke="black" paint-order="fill stroke markers" d=" M 69 441 L 73 441" stroke-linejoin="bevel" stroke-miterlimit="10"/><path fill="none" stroke="black" paint-order="fill stroke markers" d=" M 69 424 L 73 424" stroke-linejoin="bevel" stroke-miterlimit="10"/><path fill="none" stroke="black" paint-order="fill stroke markers" d=" M 69 407 L 73 407" stroke-linejoin="bevel" stroke-miterlimit="10"/><path fill="none" stroke="black" paint-order="fill stroke markers" d=" M 69 390 L 73 390" stroke-linejoin="bevel" stroke-miterlimit="10"/><path fill="none" stroke="black" paint-order="fill stroke markers" d=" M 69 373 L 73 373" stroke-linejoin="bevel" stroke-miterlimit="10"/><path fill="none" stroke="black" paint-order="fill stroke markers" d=" M 69 356 L 73 356" stroke-linejoin="bevel" stroke-miterlimit="10"/><path fill="none" stroke="black" paint-order="fill stroke markers" d=" M 69 339 L 73 339" stroke-linejoin="bevel" stroke-miterlimit="10"/><path fill="none" stroke="black" paint-order="fill stroke markers" d=" M 69 322 L 73 322" stroke-linejoin="bevel" stroke-miterlimit="10"/><path fill="none" stroke="black" paint-order="fill stroke markers" d=" M 69 304 L 73 304" stroke-linejoin="bevel" stroke-miterlimit="10"/><path fill="none" stroke="black" paint-order="fill stroke markers" d=" M 69 287 L 73 287" stroke-linejoin="bevel" stroke-miterlimit="10"/><path fill="none" stroke="black" paint-order="fill stroke markers" d=" M 69 270 L 73 270" stroke-linejoin="bevel" stroke-miterlimit="10"/><path fill="none" stroke="black" paint-order="fill stroke markers" d=" M 69 253 L 73 253" stroke-linejoin="bevel" stroke-miterlimit="10"/><path fill="none" stroke="black" paint-order="fill stroke markers" d=" M 69 236 L 73 236" stroke-linejoin="bevel" stroke-miterlimit="10"/><path fill="none" stroke="black" paint-order="fill stroke markers" d=" M 69 219 L 73 219" stroke-linejoin="bevel" stroke-miterlimit="10"/><path fill="none" stroke="black" paint-order="fill stroke markers" d=" M 69 202 L 73 202" stroke-linejoin="bevel" stroke-miterlimit="10"/><path fill="none" stroke="black" paint-order="fill stroke markers" d=" M 69 185 L 73 185" stroke-linejoin="bevel" stroke-miterlimit="10"/><path fill="none" stroke="black" paint-order="fill stroke markers" d=" M 69 168 L 73 168" stroke-linejoin="bevel" stroke-miterlimit="10"/><path fill="none" stroke="black" paint-order="fill stroke markers" d=" M 69 151 L 73 151" stroke-linejoin="bevel" stroke-miterlimit="10"/><path fill="none" stroke="black" paint-order="fill stroke markers" d=" M 69 134 L 73 134" stroke-linejoin="bevel" stroke-miterlimit="10"/><path fill="none" stroke="black" paint-order="fill stroke markers" d=" M 69 117 L 73 117" stroke-linejoin="bevel" stroke-miterlimit="10"/><path fill="none" stroke="black" paint-order="fill stroke markers" d=" M 69 100 L 73 100" stroke-linejoin="bevel" stroke-miterlimit="10"/><path fill="none" stroke="black" paint-order="fill stroke markers" d=" M 69 82 L 73 82" stroke-linejoin="bevel" stroke-miterlimit="10"/><path fill="none" stroke="black" paint-order="fill stroke markers" d=" M 69 65 L 73 65" stroke-linejoin="bevel" stroke-miterlimit="10"/><path fill="" stroke="black" paint-order="fill stroke markers" d=" M 69 48 L 73 48" stroke-linejoin="bevel" stroke-miterlimit="10"/><g transform="translate(62,526) rotate(0,0,0)"><text fill="" stroke="none" font-family="helvetica" font-size="11px" font-style="normal" font-weight="normal" text-decoration="normal" x="0" y="0" text-anchor="end" dominant-baseline="central">0</text><g transform="rotate(0,0,0) translate(-62,-526) translate(62,441)"><text fill="" stroke="none" font-family="helvetica" font-size="11px" font-style="normal" font-weight="normal" text-decoration="normal" x="0" y="0" text-anchor="end" dominant-baseline="central">5000</text><g transform="rotate(0,0,0) translate(-62,-441) translate(62,356)"><text fill="" stroke="none" font-family="helvetica" font-size="11px" font-style="normal" font-weight="normal" text-decoration="normal" x="0" y="0" text-anchor="end" dominant-baseline="central">10000</text><g transform="rotate(0,0,0) translate(-62,-356) translate(62,270)"><text fill="" stroke="none" font-family="helvetica" font-size="11px" font-style="normal" font-weight="normal" text-decoration="normal" x="0" y="0" text-anchor="end" dominant-baseline="central">15000</text><g transform="rotate(0,0,0) translate(-62,-270) translate(62,185)"><text fill="" stroke="none" font-family="helvetica" font-size="11px" font-style="normal" font-weight="normal" text-decoration="normal" x="0" y="0" text-anchor="end" dominant-baseline="central">20000</text><g transform="rotate(0,0,0) translate(-62,-185) translate(62,100)"><text fill="" stroke="none" font-family="helvetica" font-size="11px" font-style="normal" font-weight="normal" text-decoration="normal" x="0" y="0" text-anchor="end" dominant-baseline="central">25000</text><g transform="rotate(0,0,0) translate(-62,-100) translate(19,291) rotate(-90,0,0)"><text fill="" stroke="none" font-family="helvetica" font-size="13px" font-style="italic" font-weight="normal" text-decoration="normal" x="0" y="0" text-anchor="middle" dominant-baseline="alphabetic">Number of articles</text><g transform="rotate(90,0,0) translate(-19,-291)"/></g></g></g></g></g></g></g></g></g><g><g fill="#444444"><path fill="" stroke="none" d=""/><g transform="translate(73,27)"><path fill="none" stroke="none"/><text fill="" stroke="none" font-family="helvetica" font-size="13px" font-style="normal" font-weight="bold" text-decoration="normal" x="0" y="0" text-anchor="start" dominant-baseline="text-after-edge">Article length distribution for the Agriculture dataset</text></g></g></g><g/></g></svg>